<svg xmlns="http://www.w3.org/2000/svg" style="display:none;">
  <symbol id="huggingface-icon" viewBox="0 0 604 486">
    <g transform="translate(0.000000,486.000000) scale(0.100000,-0.100000)"
    stroke="none">
      <path d="M2838 4820 c-580 -49 -1098 -285 -1506 -688 -407 -402 -636 -899
      -705 -1529 -3 -24 -1 -43 5 -43 5 0 41 5 79 11 86 13 162 2 252 -37 54 -24 93
      -58 313 -276 l251 -249 63 65 c188 196 491 196 685 1 109 -109 145 -209 145
      -407 l0 -118 40 -25 c104 -66 268 -117 437 -137 198 -23 453 21 628 108 l95
      47 0 116 c0 195 40 310 144 413 155 156 390 192 580 90 28 -15 78 -55 111 -88
      l60 -62 245 244 c213 210 254 247 310 273 107 50 217 61 322 30 l29 -8 -6 57
      c-64 596 -259 1038 -642 1459 -211 234 -541 460 -853 586 -326 132 -737 195
      -1082 167z m-473 -1432 c217 -54 418 -348 428 -626 2 -68 0 -75 -23 -94 -41
      -33 -69 -18 -187 100 -85 85 -123 116 -178 143 -148 72 -266 38 -429 -126 -49
      -49 -97 -98 -105 -108 -24 -28 -59 -32 -89 -10 -23 17 -27 28 -30 80 -5 110
      37 258 109 380 54 91 165 198 241 233 105 47 162 53 263 28z m1500 0 c161 -40
      337 -237 399 -447 25 -85 38 -215 25 -244 -13 -29 -54 -50 -80 -42 -11 4 -68
      55 -127 114 -125 126 -203 172 -304 179 -53 4 -67 0 -133 -32 -75 -37 -238
      -177 -250 -214 -6 -22 -56 -52 -84 -52 -41 0 -61 34 -61 103 1 237 158 512
      344 602 108 52 167 59 271 33z"/>
      <path d="M5210 2259 c-19 -11 -206 -192 -416 -401 -364 -363 -383 -380 -418
      -380 -65 0 -73 16 -78 160 -3 111 -7 134 -28 177 -29 57 -57 80 -122 97 -58
      15 -113 0 -163 -43 -62 -55 -65 -80 -65 -544 0 -531 10 -615 95 -792 112 -230
      323 -404 573 -470 137 -37 306 -37 443 -1 120 33 255 100 350 176 87 69 596
      589 622 635 36 63 -1 155 -76 191 -72 34 -106 16 -276 -141 -104 -96 -113
      -100 -153 -65 -41 35 -28 54 235 323 251 259 287 302 287 347 0 63 -66 138
      -133 149 -53 8 -89 -17 -257 -181 -365 -356 -376 -367 -396 -360 -33 12 -54
      36 -54 61 0 19 79 105 328 359 180 184 335 349 345 367 21 40 22 69 1 114 -35
      73 -122 110 -185 78 -19 -10 -128 -110 -244 -224 -455 -447 -471 -462 -491
      -455 -10 4 -27 14 -36 22 -41 35 -28 54 235 324 138 142 260 274 270 291 36
      63 -1 155 -76 191 -46 21 -75 20 -117 -5z"/>
      <path d="M689 2246 c-34 -24 -69 -85 -69 -122 0 -37 49 -95 286 -339 204 -209
      254 -265 254 -287 0 -40 -29 -64 -69 -58 -8 1 -165 149 -348 328 -184 180
      -348 335 -366 345 -43 23 -73 21 -125 -9 -43 -26 -81 -84 -82 -127 0 -41 48
      -97 359 -414 179 -184 328 -340 329 -349 10 -44 -25 -83 -67 -75 -8 1 -131
      116 -273 254 -143 139 -273 260 -291 270 -43 23 -73 21 -125 -9 -43 -26 -81
      -84 -82 -127 0 -40 44 -93 286 -342 196 -200 254 -266 254 -285 0 -30 -8 -44
      -36 -58 -28 -15 -42 -6 -178 120 -136 125 -162 136 -234 97 -78 -41 -108 -118
      -74 -185 23 -45 592 -612 667 -666 123 -87 242 -137 391 -163 108 -19 155 -19
      269 0 360 58 627 302 728 664 20 71 21 105 25 556 2 331 0 491 -8 517 -22 74
      -102 137 -176 138 -17 0 -55 -12 -84 -27 -83 -42 -100 -83 -100 -234 0 -65 -4
      -129 -10 -143 -11 -30 -62 -47 -100 -34 -14 5 -196 179 -405 387 -209 209
      -390 384 -402 390 -38 19 -105 13 -144 -13z"/>
      <path d="M2417 977 c-6 -243 -13 -298 -62 -443 -32 -94 -81 -192 -139 -277
      -25 -36 -42 -68 -38 -71 4 -2 65 -22 135 -45 459 -146 954 -146 1413 0 71 23
      132 43 136 45 4 3 -18 43 -48 89 -141 217 -194 423 -194 758 l0 176 -62 -26
      c-98 -40 -271 -80 -403 -93 -236 -25 -481 11 -691 101 l-42 17 -5 -231z"/>
    </g>
  </symbol>
</svg>
