<svg xmlns="http://www.w3.org/2000/svg" style="display:none;">
  <symbol id="twitter-icon" viewBox="0 0 347 314">
    <g transform="translate(0.000000,314.000000) scale(0.100000,-0.100000)" stroke="none">
        <path d="M47 3098 c6 -7 245 -321 533 -698 288 -377 572 -749 633 -828 60 -79
        107 -148 104 -155 -3 -9 -812 -936 -1195 -1369 -14 -17 -2 -18 246 -18 l260 0
        467 532 c257 293 470 534 473 535 4 1 191 -238 415 -532 l408 -535 520 0 c285
        0 519 3 519 6 0 4 -521 698 -1178 1569 -148 196 -151 200 -133 220 10 11 240
        274 511 585 271 311 520 595 553 633 l59 67 -263 -1 -264 0 -425 -489 c-234
        -269 -428 -490 -431 -490 -4 0 -174 221 -379 490 l-373 490 -535 0 c-426 0
        -532 -3 -525 -12z m1724 -1360 c447 -590 869 -1146 937 -1236 l124 -163 -153
        3 -152 3 -939 1230 c-516 676 -938 1230 -938 1232 0 2 69 3 154 3 l154 0 813
        -1072z"/>
    </g>
  </symbol>
</svg>
